<?xml version="1.0" encoding="UTF-8" standalone="no"?>
<svg width="800px" height="800px" viewBox="0 0 512 512" fill="none" xmlns="http://www.w3.org/2000/svg"  xml:space="preserve">
<style type="text/css">
<![CDATA[
	path{fill:#000000;}
    g{width:50px;}
    line{  stroke-linecap: round;
  stroke: orange;
  stroke-width: 20;}
]]>
</style>
<!-- COMPUTER -->
<g class="computer">
    <path fill-rule="evenodd" clip-rule="evenodd" d="M2 6C2 4.34315 3.34315 3 5 3H19C20.6569 3 22 4.34315 22 6V15C22 16.6569 20.6569 18 19 18H13V19H15C15.5523 19 16 19.4477 16 20C16 20.5523 15.5523 21 15 21H9C8.44772 21 8 20.5523 8 20C8 19.4477 8.44772 19 9 19H11V18H5C3.34315 18 2 16.6569 2 15V6ZM5 5C4.44772 5 4 5.44772 4 6V15C4 15.5523 4.44772 16 5 16H19C19.5523 16 20 15.5523 20 15V6C20 5.44772 19.5523 5 19 5H5Z"/>
</g>
  <line class="line" x1="40" x2="250" y1="100" y2="100" />

	 <!-- width="800px" height="800px" viewBox="0 0 512 512"> -->
<!-- TABLET -->
<g class="tablet">
	<path class="st0" d="M383.297,0H128.688C97.375,0,72,25.375,72,56.688v398.625C72,486.625,97.375,512,128.688,512h254.609
		C414.609,512,440,486.625,440,455.313V56.688C440,25.375,414.609,0,383.297,0z M260,483.984c-8.094,0-14.672-6.563-14.672-14.672
		c0-8.094,6.578-14.656,14.672-14.656s14.672,6.563,14.672,14.656C274.672,477.422,268.094,483.984,260,483.984z M392,424H120V64
		h272V424z"/>
	<path class="st0" d="M209.781,312.063c0.797,0.438,1.734,0.422,2.516-0.031l105.922-63.25c0.766-0.422,1.219-1.25,1.219-2.125
		c0-0.859-0.453-1.688-1.219-2.125l-105.922-63.25c-0.781-0.438-1.719-0.453-2.516,0c-0.766,0.438-1.25,1.25-1.25,2.156v63.219
		v63.234C208.531,310.797,209.016,311.609,209.781,312.063z"/>
</g>
  <line class="line" x1="40" x2="250" y1="100" y2="100" />

<!-- BROWSER -->
<g class="browser">
	<path class="st0" d="M464,0H48C21.492,0,0,21.492,0,48v416c0,26.508,21.492,48,48,48h416c26.508,0,48-21.492,48-48V48
		C512,21.492,490.508,0,464,0z M444.664,35c10.492,0,19,8.508,19,19s-8.508,19-19,19c-10.492,0-19-8.508-19-19
		S434.172,35,444.664,35z M374.164,35c10.492,0,19,8.508,19,19s-8.508,19-19,19c-10.492,0-19-8.508-19-19S363.672,35,374.164,35z
		 M303.664,35c10.492,0,19,8.508,19,19s-8.508,19-19,19c-10.492,0-19-8.508-19-19S293.172,35,303.664,35z M472,464
		c0,4.406-3.586,8-8,8H48c-4.414,0-8-3.594-8-8V104h432V464z"/>
	<rect x="96" y="192" class="st0" width="152" height="32"/>
	<rect x="96" y="352" class="st0" width="328" height="32"/>
	<rect x="304" y="192" class="st0" width="120" height="120"/>
	<polygon class="st0" points="229.042,304 248,304 248,272 96,272 96,304 213.042,304 	"/>
</g>
  <line class="line" x1="40" x2="250" y1="100" y2="100" />
</svg>